<mxfile host="app.diagrams.net" modified="2023-03-28T17:32:03.069Z" agent="Mozilla/5.0 (Macintosh; Intel Mac OS X 10_15_7) AppleWebKit/537.36 (KHTML, like Gecko) Chrome/111.0.0.0 Safari/537.36" version="21.1.1" etag="CgDK04mVlgQbzFkXjDzh" type="github">
  <diagram name="Page-1" id="ner-EUDDmUUmzxSJZ0nf">
    <mxGraphModel>
      <root>
        <mxCell id="0" />
        <mxCell id="1" parent="0" />
      </root>
    </mxGraphModel>
  </diagram>
</mxfile>
